<svg xmlns="http://www.w3.org/2000/svg" width="32" height="32" viewBox="0 0 32 32">
  <defs>
    <style>.a,.b{fill:none;}.b{stroke:#333;stroke-width:2px;}.c{stroke:none;}</style>
  </defs>
  <g transform="translate(-1352 -468)">
    <rect class="a" width="32" height="32" transform="translate(1352 468)" />
    <g transform="translate(-20)">
      <g class="b" transform="translate(1382 473)">
        <path class="c" d="M5,0H7a5,5,0,0,1,5,5v5a0,0,0,0,1,0,0H0a0,0,0,0,1,0,0V5A5,5,0,0,1,5,0Z" />
        <path class="a" d="M5,1H7a4,4,0,0,1,4,4V9a0,0,0,0,1,0,0H1A0,0,0,0,1,1,9V5A4,4,0,0,1,5,1Z" />
      </g>
      <g class="b" transform="translate(1378 481)">
        <path class="c" d="M6,0h8a6,6,0,0,1,6,6v6a2,2,0,0,1-2,2H2a2,2,0,0,1-2-2V6A6,6,0,0,1,6,0Z" />
        <path class="a" d="M6,1h8a5,5,0,0,1,5,5v6a1,1,0,0,1-1,1H2a1,1,0,0,1-1-1V6A5,5,0,0,1,6,1Z" />
      </g>
    </g>
  </g>
</svg>