<svg xmlns="http://www.w3.org/2000/svg" width="32" height="32" viewBox="0 0 32 32">
  <defs>
    <style>.aa{fill:#333;}.bb{fill:none;}</style>
  </defs>
  <g transform="translate(-1352 -376)">
    <path class="aa" fill="#333"
      d="M116.154,31.22h-6.349c-4.084,0-7.405,3.062-7.405,6.824v2.924a3.06,3.06,0,0,0,3.174,2.924h14.811a3.06,3.06,0,0,0,3.174-2.924V38.044C123.559,34.282,120.238,31.22,116.154,31.22Zm5.29,9.746a1.021,1.021,0,0,1-1.059.976H105.574a1.021,1.021,0,0,1-1.059-.976V38.044a5.1,5.1,0,0,1,5.29-4.873h6.349a5.1,5.1,0,0,1,5.29,4.873Zm-8.464-10.72a5.1,5.1,0,0,0,5.29-4.873,5.308,5.308,0,0,0-10.58,0A5.1,5.1,0,0,0,112.98,30.246Zm0-7.8a3.06,3.06,0,0,1,3.174,2.924,3.185,3.185,0,0,1-6.349,0A3.061,3.061,0,0,1,112.98,22.449Z"
      transform="translate(1255.51 360.5)" />
    <rect class="bb" width="32" height="32" transform="translate(1352 376)" fill="none"/>
  </g>
</svg>